<?xml version="1.0" encoding="utf-8"?>
<!-- Svg Vector Icons : http://www.onlinewebfonts.com/icon -->
<!DOCTYPE svg PUBLIC "-//W3C//DTD SVG 1.1//EN" "http://www.w3.org/Graphics/SVG/1.1/DTD/svg11.dtd">
<svg version="1.1" xmlns="http://www.w3.org/2000/svg" xmlns:xlink="http://www.w3.org/1999/xlink" x="0px" y="0px" viewBox="0 0 1000 1000" enable-background="new 0 0 1000 1000" xml:space="preserve">
<metadata> Svg Vector Icons : http://www.onlinewebfonts.com/icon </metadata>
<g><path d="M499.2,773.9c-48.7,0-163.1-122.3-163.1-122.3s-176.5,27.1-237.8,67.9C37.1,760.3,10,976.7,10,976.7h980c0,0-17.9-209.1-90-257.1c-61.2-40.8-237.8-67.9-237.8-67.9S547.7,773.9,499.2,773.9z"/><path d="M503,23.3c137.4,0,248.8,127.2,248.8,284.1c0,156.9-111.4,284.1-248.8,284.1S254.1,464.3,254.1,307.4C254.1,150.5,365.5,23.3,503,23.3z"/></g>
</svg>